<svg width="24" height="23" viewBox="0 0 24 23" fill="none" xmlns="http://www.w3.org/2000/svg">
<path d="M12 0C13.5913 0 15.1174 0.605802 16.2426 1.68414C17.3679 2.76247 18 4.22501 18 5.75C18 7.27499 17.3679 8.73753 16.2426 9.81586C15.1174 10.8942 13.5913 11.5 12 11.5C10.4087 11.5 8.88258 10.8942 7.75736 9.81586C6.63214 8.73753 6 7.27499 6 5.75C6 4.22501 6.63214 2.76247 7.75736 1.68414C8.88258 0.605802 10.4087 0 12 0ZM12 14.375C18.63 14.375 24 16.9481 24 20.125V23H0V20.125C0 16.9481 5.37 14.375 12 14.375Z" fill="#D7D6D6"/>
</svg>
