<svg width="75" height="75" viewBox="0 0 75 75" fill="none" xmlns="http://www.w3.org/2000/svg">
<path d="M18.75 68.75C17.0312 68.75 15.5604 68.1385 14.3375 66.9156C13.1146 65.6927 12.5021 64.2208 12.5 62.5V31.25C12.5 29.5313 13.1125 28.0604 14.3375 26.8375C15.5625 25.6146 17.0333 25.0021 18.75 25H21.875V18.75C21.875 14.4271 23.399 10.7427 26.4469 7.69688C29.4948 4.65104 33.1792 3.12709 37.5 3.125C41.8208 3.12292 45.5062 4.64688 48.5562 7.69688C51.6062 10.7469 53.1292 14.4313 53.125 18.75V25H56.25C57.9687 25 59.4406 25.6125 60.6656 26.8375C61.8906 28.0625 62.5021 29.5333 62.5 31.25V62.5C62.5 64.2188 61.8885 65.6906 60.6656 66.9156C59.4427 68.1406 57.9708 68.7521 56.25 68.75H18.75ZM37.5 53.125C39.2187 53.125 40.6906 52.5135 41.9156 51.2906C43.1406 50.0677 43.7521 48.5958 43.75 46.875C43.7479 45.1542 43.1365 43.6833 41.9156 42.4625C40.6948 41.2417 39.2229 40.6292 37.5 40.625C35.7771 40.6208 34.3062 41.2333 33.0875 42.4625C31.8687 43.6917 31.2562 45.1625 31.25 46.875C31.2437 48.5875 31.8562 50.0594 33.0875 51.2906C34.3187 52.5219 35.7896 53.1333 37.5 53.125ZM28.125 25H46.875V18.75C46.875 16.1458 45.9635 13.9323 44.1406 12.1094C42.3177 10.2865 40.1042 9.375 37.5 9.375C34.8958 9.375 32.6823 10.2865 30.8594 12.1094C29.0365 13.9323 28.125 16.1458 28.125 18.75V25Z" fill="#2F485A"/>
</svg>
