<svg width="29" height="29" viewBox="0 0 29 29" fill="none" xmlns="http://www.w3.org/2000/svg">
<path fill-rule="evenodd" clip-rule="evenodd" d="M2.1228 2.1228C0 4.2485 0 7.6647 0 14.5C0 21.3353 0 24.753 2.1228 26.8758C4.2485 29 7.6647 29 14.5 29C21.3353 29 24.753 29 26.8758 26.8758C29 24.7544 29 21.3353 29 14.5C29 7.6647 29 4.24705 26.8758 2.1228C24.7544 0 21.3353 0 14.5 0C7.6647 0 4.24705 0 2.1228 2.1228ZM17.0375 11.6C17.0375 12.2003 17.5247 12.6875 18.125 12.6875H19.1255L16.2066 15.6063C16.173 15.6401 16.133 15.6669 16.0889 15.6852C16.0449 15.7034 15.9977 15.7128 15.95 15.7128C15.9023 15.7128 15.8551 15.7034 15.8111 15.6852C15.767 15.6669 15.727 15.6401 15.6934 15.6063L13.3937 13.3067C12.9178 12.8312 12.2727 12.5641 11.6 12.5641C10.9273 12.5641 10.2822 12.8312 9.80635 13.3067L6.4815 16.6315C6.37465 16.7311 6.28896 16.8511 6.22952 16.9845C6.17008 17.1179 6.13812 17.2619 6.13554 17.4079C6.13297 17.554 6.15983 17.699 6.21452 17.8344C6.26922 17.9698 6.35063 18.0928 6.45389 18.1961C6.55716 18.2994 6.68017 18.3808 6.81558 18.4355C6.951 18.4902 7.09604 18.517 7.24206 18.5145C7.38808 18.5119 7.53208 18.4799 7.66548 18.4205C7.79888 18.361 7.91894 18.2753 8.0185 18.1685L11.3434 14.8437C11.377 14.8099 11.417 14.7831 11.4611 14.7648C11.5051 14.7466 11.5523 14.7372 11.6 14.7372C11.6477 14.7372 11.6949 14.7466 11.7389 14.7648C11.783 14.7831 11.823 14.8099 11.8567 14.8437L14.1564 17.1434C14.6322 17.6188 15.2773 17.8859 15.95 17.8859C16.6227 17.8859 17.2678 17.6188 17.7437 17.1434L20.6625 14.226V15.225C20.6625 15.5134 20.7771 15.79 20.981 15.994C21.185 16.1979 21.4616 16.3125 21.75 16.3125C22.0384 16.3125 22.315 16.1979 22.519 15.994C22.7229 15.79 22.8375 15.5134 22.8375 15.225V11.6C22.8375 11.3116 22.7229 11.035 22.519 10.831C22.315 10.6271 22.0384 10.5125 21.75 10.5125H18.125C17.8366 10.5125 17.56 10.6271 17.356 10.831C17.1521 11.035 17.0375 11.3116 17.0375 11.6Z" fill="white"/>
</svg>
